<?xml version="1.0" encoding="UTF-8"?>
<svg width="160" height="40" viewBox="0 0 160 40" fill="none" xmlns="http://www.w3.org/2000/svg">
  <path d="M40 20C40 31.0457 31.0457 40 20 40C8.9543 40 0 31.0457 0 20C0 8.9543 8.9543 0 20 0C31.0457 0 40 8.9543 40 20Z" fill="#4F46E5"/>
  <path d="M20 12C15.59 12 12 15.13 12 19C12 21.38 13.19 23.47 15 24.74V30L19.28 27.3C19.52 27.19 19.76 27.13 20 27.13C24.41 27.13 28 24 28 20.13C28 16.26 24.41 12 20 12Z" fill="white"/>
  <path d="M25 17H15V19H25V17Z" fill="white"/>
  <path d="M23 21H15V23H23V21Z" fill="white"/>
  <path d="M50 12H45V28H47V20H50L52 22V28H54V12H52V18H50V12Z" fill="#111827"/>
  <path d="M59 12H57V20C57 21.1 57.9 22 59 22H63V12H61V20H59V12Z" fill="#111827"/>
  <path d="M68 12H66V28H68V18H72V28H74V12H72V16H68V12Z" fill="#111827"/>
  <path d="M79 12H77V20C77 21.1 77.9 22 79 22H83V12H81V20H79V12Z" fill="#111827"/>
  <path d="M90 12H88V20C88 21.1 88.9 22 90 22H94V12H92V20H90V12Z" fill="#111827"/>
  <path d="M102 12H97V28H99V20H102L104 22V28H106V12H104V18H102V12Z" fill="#111827"/>
  <path d="M108 12V28H110V12H108Z" fill="#111827"/>
  <path d="M120 12H115V28H117V20H120L122 22V28H124V12H122V18H120V12Z" fill="#111827"/>
  <path d="M129 12H127V20C127 21.1 127.9 22 129 22H133V12H131V20H129V12Z" fill="#111827"/>
  <path d="M138 12H136V28H138V18H142V28H144V12H142V16H138V12Z" fill="#111827"/>
  <path d="M152 12H147V28H149V20H152L154 22V28H156V12H154V18H152V12Z" fill="#111827"/>
</svg>
